<svg width="604" height="583" viewBox="0 0 604 583" fill="none" xmlns="http://www.w3.org/2000/svg">
<g filter="url(#filter0_f_100_34)">
<path d="M274.282 323.892C280.022 308.329 301.819 316.103 293.374 334.205M266.967 297.945L256.097 318.069C252.976 325.493 249.324 346.406 259.683 370.665C269.072 369.737 291.613 363.382 306.667 345.384L317.021 324.981C313.302 323.638 303.93 317.377 296.195 303.067C290.911 304.212 277.667 304.791 266.967 297.945Z" stroke="#C8AFFF" stroke-opacity="0.4" stroke-width="8" stroke-linecap="round" stroke-linejoin="round"/>
<path d="M277.188 348.129C277.188 348.129 280.365 342.246 280.811 341.421M277.188 348.129C274.608 346.735 270.996 344.784 270.996 344.784L274.619 338.076C275.478 337.473 274.661 336.765 274.145 336.487C278.325 328.746 286.262 335.033 282.401 340.946C282.057 340.76 281.257 340.595 280.811 341.421M277.188 348.129L280.811 341.421M262.224 340.046L271.421 323.018L295.158 335.839L285.96 352.867L262.224 340.046Z" stroke="#C8AFFF" stroke-opacity="0.4" stroke-width="8" stroke-linecap="round" stroke-linejoin="round"/>
<path d="M278.348 220.108L277.403 274.922M277.403 274.922C270.48 283.625 250.634 303.256 226.63 312.154M277.403 274.922C290.092 291.907 317.751 301.826 329.995 304.662M226.63 312.154L193.967 291.179M226.63 312.154C226.595 318.801 231.548 342.539 251.641 384.321L251.836 386.426M251.836 386.426L216.522 449.338M251.836 386.426L253.705 385.435C277.464 380.938 325.381 370.959 326.975 367.021M326.975 367.021L361.156 381.484M326.975 367.021C325.576 353.156 324.222 321.274 329.995 304.662M329.995 304.662L375.317 273.818" stroke="#C8AFFF" stroke-opacity="0.4" stroke-width="8" stroke-linecap="round" stroke-linejoin="round"/>
<path d="M270.631 198.607L271.475 221.726M285.132 196.441L285.223 218.487M371.913 265.312L391.473 252.547M377.258 278.863L396.539 266.615M358.091 387.159L372.735 397.068M366.648 373.784L382.686 381.113M224.624 450.38L218.832 475.914M211.208 443.134L192.989 463.288M181.44 272.412L197.395 282.363M173.791 290.277L190.665 296.059" stroke="#C8AFFF" stroke-opacity="0.4" stroke-width="8" stroke-linecap="round" stroke-linejoin="round"/>
<path d="M335.815 228.484C427.666 278.096 381.274 459.006 216.244 449.854" stroke="#C8AFFF" stroke-opacity="0.4" stroke-width="8" stroke-linecap="round" stroke-linejoin="round"/>
<path d="M336.144 228.662C244.294 179.05 118.436 317.037 216.573 450.032" stroke="#C8AFFF" stroke-opacity="0.4" stroke-width="8" stroke-linecap="round" stroke-linejoin="round"/>
<path d="M162.408 368.117C149.872 366.234 123.292 366.986 117.263 385.059C115.883 387.202 115.701 394.614 126.013 407.116C125.912 413.061 128.099 422.529 135.681 425.003C141.915 427.037 151.09 427.327 170.009 418.216" stroke="#C8AFFF" stroke-opacity="0.4" stroke-width="8" stroke-linecap="round"/>
<path d="M313.085 449.503C321.533 458.955 335.477 481.596 323.669 496.547C322.633 498.876 316.534 503.092 300.425 501.323C295.509 504.667 286.392 508.03 280.165 503.045C275.047 498.947 269.773 491.433 267.02 470.615L266.587 467.715" stroke="#C8AFFF" stroke-opacity="0.4" stroke-width="8" stroke-linecap="round"/>
<path d="M278.293 194.866L264.918 186.308C259.498 169.605 235.78 134.694 226.902 127.114C218.024 119.533 207.252 117.833 207.252 117.833C183.002 112.956 134.093 106.179 132.456 118.093C130.82 130.008 156.983 144.672 170.269 150.515C193.294 160.952 240.243 186.578 243.84 205.585" stroke="#C8AFFF" stroke-opacity="0.4" stroke-width="8" stroke-linecap="round" stroke-linejoin="round"/>
<path d="M395.189 258.006L409.679 264.499C426.619 259.874 468.819 260.568 480.026 263.836C491.233 267.104 498.561 275.181 498.561 275.181C515.936 292.786 548.42 329.973 539.353 337.874C530.286 345.775 503.678 331.936 491.507 324.029C470.154 310.496 422.982 285.283 405.114 292.695" stroke="#C8AFFF" stroke-opacity="0.4" stroke-width="8" stroke-linecap="round" stroke-linejoin="round"/>
<path d="M366.532 219.745L368.204 216.649C372.787 211.125 369.763 208.826 389.364 194.75C408.965 180.674 419.417 115.664 393.45 106.971C367.484 98.2784 329.684 140.518 330.023 162.697C330.361 184.876 327.652 193.412 326.407 194.072L324.735 197.168M366.532 219.745C443.467 284.63 401.648 462.011 218.317 475.636C199.13 476.604 192 461.421 192 461.421C130.496 381.541 160.255 173.916 324.735 197.168M366.532 219.745C350.226 204.272 333.597 199.272 324.735 197.168" stroke="#C8AFFF" stroke-opacity="0.4" stroke-width="8" stroke-linejoin="round"/>
</g>
<defs>
<filter id="filter0_f_100_34" x="104.59" y="93.8091" width="448.329" height="423.763" filterUnits="userSpaceOnUse" color-interpolation-filters="sRGB">
<feFlood flood-opacity="0" result="BackgroundImageFix"/>
<feBlend mode="normal" in="SourceGraphic" in2="BackgroundImageFix" result="shape"/>
<feGaussianBlur stdDeviation="4" result="effect1_foregroundBlur_100_34"/>
</filter>
</defs>
</svg>
